<svg xmlns="http://www.w3.org/2000/svg" width="256" height="64" viewBox="0 0 256 64" shape-rendering="crispEdges">
<rect width="256" height="64" fill="#657044"/>
<!-- grass A -->
<g transform="translate(0 0)"><rect width="32" height="32" fill="#6f784a"/><path fill="#788255" d="M2 5h7v2H2zM17 3h4v1h-4zM11 14h8v2h-8zM23 20h6v1h-6zM4 25h5v1H4z"/><path fill="#59633a" d="M7 9h2v3H7zM25 5h1v4h-1zM18 24h2v4h-2zM29 15h1v2h-1zM3 18h2v1H3z"/><path fill="#8a8050" d="M12 7h3v1h-3zM22 13h4v1h-4zM8 29h4v1H8z"/></g>
<!-- grass B -->
<g transform="translate(32 0)"><rect width="32" height="32" fill="#697347"/><path fill="#748052" d="M1 11h6v2H1zM10 3h5v1h-5zM20 8h7v2h-7zM14 19h5v1h-5zM24 28h5v1h-5z"/><path fill="#535e38" d="M5 5h1v3H5zM16 10h2v4h-2zM29 4h1v5h-1zM9 23h2v3H9zM21 16h1v2h-1z"/><path fill="#827a4c" d="M3 27h5v1H3zM18 29h3v1h-3zM25 18h4v1h-4z"/></g>
<!-- dense forest -->
<g transform="translate(64 0)"><rect width="32" height="32" fill="#657044"/><rect x="5" y="19" width="3" height="10" fill="#4b3422"/><rect x="15" y="18" width="3" height="11" fill="#4b3422"/><rect x="24" y="20" width="3" height="9" fill="#4b3422"/><path fill="#1f3922" d="M2 12h10v10H2zM7 6h10v12H7zM16 8h13v12H16zM12 15h14v10H12z"/><path fill="#31522c" d="M4 10h8v6H4zM10 7h7v7h-7zM19 10h8v7h-8zM14 17h10v6H14z"/><path fill="#4d6b3b" d="M6 13h6v4H6zM13 10h5v4h-5zM21 13h6v4h-6zM17 20h7v3h-7z"/><rect x="2" y="25" width="28" height="3" fill="#4d5934" opacity=".7"/></g>
<!-- hill top -->
<g transform="translate(96 0)"><rect width="32" height="32" fill="#877454"/><path fill="#9b8763" d="M1 4h24v2H1zM6 10h21v2H6zM2 17h18v2H2zM8 24h22v2H8z"/><path fill="#66533d" d="M22 4h7v1h-7zM1 11h5v1H1zM18 18h10v1H18zM2 25h7v1H2z"/><path fill="#b19a70" d="M8 6h8v1H8zM15 13h9v1h-9zM5 21h10v1H5z"/></g>
<!-- river vertical -->
<g transform="translate(128 0)"><rect width="32" height="32" fill="#4e6f70"/><path fill="#607f7d" d="M3 4h17v1H3zM11 9h18v1H11zM2 15h13v1H2zM8 22h21v1H8zM4 28h16v1H4z"/><path fill="#789391" d="M5 6h9v1H5zM16 12h12v1H16zM3 19h11v1H3zM18 26h10v1H18z"/><path fill="#395b5d" d="M24 3h5v1h-5zM1 11h7v1H1zM19 17h8v1h-8zM6 25h7v1H6z"/></g>
<!-- bridge -->
<g transform="translate(160 0)"><rect width="32" height="32" fill="#4e6f70"/><rect x="3" width="26" height="32" fill="#6f4f33"/><path fill="#422f1f" d="M5 0h2v32H5zM10 0h2v32h-2zM15 0h2v32h-2zM20 0h2v32h-2zM25 0h2v32h-2z"/><path fill="#8b6846" d="M7 0h1v32H7zM12 0h1v32h-1zM17 0h1v32h-1zM22 0h1v32h-1z"/><rect x="1" y="6" width="30" height="3" fill="#39291d"/><rect x="1" y="24" width="30" height="3" fill="#39291d"/></g>
<!-- village -->
<g transform="translate(192 0)"><rect width="32" height="32" fill="#6c7549"/><rect x="4" y="14" width="11" height="10" fill="#a17751"/><path fill="#5a3b2b" d="M2 15L9 8l8 7z"/><rect x="8" y="18" width="3" height="6" fill="#4a3327"/><rect x="18" y="18" width="10" height="8" fill="#996d4b"/><path fill="#65422e" d="M16 19l7-7 7 7z"/><rect x="21" y="21" width="3" height="5" fill="#4c3428"/><path fill="#7d7850" d="M3 27h26v2H3z"/></g>
<!-- gate -->
<g transform="translate(224 0)"><rect width="32" height="32" fill="#6d7448"/><rect x="1" y="8" width="30" height="21" fill="#6e6658"/><path fill="#81786a" d="M2 9h6v5H2zM10 9h6v5h-6zM18 9h6v5h-6zM26 9h5v5h-5z"/><path fill="#5b5449" d="M4 15h7v4H4zM13 15h7v4h-7zM22 15h7v4h-7zM1 21h7v4H1zM10 21h7v4h-7zM19 21h7v4h-7z"/><rect x="8" y="18" width="16" height="11" fill="#342b24"/><rect x="11" y="20" width="10" height="9" fill="#47362b"/></g>
<!-- diagonal road -->
<g transform="translate(0 32)"><rect width="32" height="32" fill="#6f784a"/><path fill="#806943" d="M-5 30L27 -2l10 10L5 38z"/><path fill="#a08758" d="M0 30L28 2l4 4L4 34z"/><path fill="#645338" d="M6 25h5v1H6zM13 18h5v1h-5zM21 10h4v1h-4z"/></g>
<!-- horizontal road -->
<g transform="translate(32 32)"><rect width="32" height="32" fill="#697347"/><rect y="10" width="32" height="13" fill="#806943"/><rect y="13" width="32" height="7" fill="#a08758"/><path fill="#655439" d="M3 16h7v1H3zM16 14h5v1h-5zM24 18h6v1h-6z"/></g>
<!-- forest edge -->
<g transform="translate(64 32)"><rect width="32" height="32" fill="#697347"/><rect x="6" y="19" width="3" height="10" fill="#4b3422"/><rect x="20" y="20" width="3" height="9" fill="#4b3422"/><path fill="#234126" d="M1 12h13v11H1zM11 8h17v14H11z"/><path fill="#365a31" d="M4 11h10v8H4zM15 10h11v9H15z"/><path fill="#526f3d" d="M6 15h8v5H6zM18 13h8v5h-8z"/></g>
<!-- cliff edge -->
<g transform="translate(96 32)"><rect width="32" height="32" fill="#877454"/><rect y="20" width="32" height="12" fill="#51402e"/><rect y="20" width="32" height="3" fill="#765d41"/><path fill="#6a5037" d="M2 24h7v2H2zM12 27h5v2h-5zM20 23h9v2h-9zM5 30h6v2H5zM23 29h5v2h-5z"/><path fill="#9a8560" d="M4 5h20v2H4zM10 12h17v2H10z"/></g>
<!-- left bank -->
<g transform="translate(128 32)"><rect width="32" height="32" fill="#4e6f70"/><rect x="0" width="5" height="32" fill="#9a835e"/><rect x="5" width="2" height="32" fill="#665d45"/><path fill="#6e8b88" d="M10 5h14v1H10zM13 13h17v1H13zM9 21h15v1H9zM16 27h12v1H16z"/></g>
<!-- right bank -->
<g transform="translate(160 32)"><rect width="32" height="32" fill="#4e6f70"/><rect x="27" width="5" height="32" fill="#9a835e"/><rect x="25" width="2" height="32" fill="#665d45"/><path fill="#6e8b88" d="M2 5h14v1H2zM4 13h17v1H4zM3 21h15v1H3zM8 27h12v1H8z"/></g>
<!-- grass C -->
<g transform="translate(192 32)"><rect width="32" height="32" fill="#6b7548"/><path fill="#566238" d="M2 6h2v4H2zM8 11h1v3H8zM15 4h2v4h-2zM22 17h1v4h-1zM28 9h2v3h-2zM11 25h1v4h-1z"/><path fill="#7d8350" d="M4 19h9v1H4zM18 27h8v1h-8zM21 7h6v1h-6z"/></g>
<!-- dirt -->
<g transform="translate(224 32)"><rect width="32" height="32" fill="#897150"/><path fill="#715b40" d="M3 7h11v1H3zM16 4h9v1h-9zM6 15h18v1H6zM2 24h8v1H2zM18 27h11v1H18z"/><path fill="#a08760" d="M8 10h6v1H8zM21 12h7v1H21zM10 21h9v1h-9z"/></g>
</svg>